<svg width="179" height="23" viewBox="0 0 179 23" fill="none" xmlns="http://www.w3.org/2000/svg">
<path d="M16.4668 0.319444H20.8178V22.6806H16.4668V0.319444ZM4.35099 22.6806H0V0.319444H4.35099V22.6806ZM16.8015 13.0972H3.98283V9.55139H16.8015V13.0972Z" fill="white"/>
<path d="M38.0735 23C36.2438 23 34.5592 22.7125 33.0197 22.1375C31.4801 21.5625 30.1413 20.7639 29.0034 19.7417C27.8654 18.6981 26.9841 17.4843 26.3593 16.1C25.7345 14.6944 25.4222 13.1611 25.4222 11.5C25.4222 9.83889 25.7345 8.3162 26.3593 6.93194C26.9841 5.52639 27.8654 4.3125 29.0034 3.29028C30.1413 2.24676 31.4801 1.4375 33.0197 0.8625C34.5592 0.2875 36.2327 0 38.04 0C39.8697 0 41.5431 0.2875 43.0604 0.8625C44.6 1.4375 45.9387 2.24676 47.0767 3.29028C48.2146 4.3125 49.096 5.52639 49.7208 6.93194C50.3455 8.3162 50.6579 9.83889 50.6579 11.5C50.6579 13.1611 50.3455 14.6944 49.7208 16.1C49.096 17.5056 48.2146 18.7194 47.0767 19.7417C45.9387 20.7639 44.6 21.5625 43.0604 22.1375C41.5431 22.7125 39.8808 23 38.0735 23ZM38.04 19.3583C39.2226 19.3583 40.3159 19.1667 41.32 18.7833C42.3241 18.4 43.1943 17.8569 43.9306 17.1542C44.6669 16.4301 45.2359 15.5995 45.6375 14.6625C46.0615 13.7042 46.2734 12.65 46.2734 11.5C46.2734 10.35 46.0615 9.30648 45.6375 8.36945C45.2359 7.41111 44.6669 6.58056 43.9306 5.87778C43.1943 5.1537 42.3241 4.6 41.32 4.21667C40.3159 3.83333 39.2226 3.64167 38.04 3.64167C36.8575 3.64167 35.7641 3.83333 34.7601 4.21667C33.7783 4.6 32.9081 5.1537 32.1495 5.87778C31.4131 6.58056 30.833 7.41111 30.4091 8.36945C30.0074 9.30648 29.8066 10.35 29.8066 11.5C29.8066 12.6287 30.0074 13.6722 30.4091 14.6306C30.833 15.5889 31.4131 16.4301 32.1495 17.1542C32.8858 17.8569 33.756 18.4 34.7601 18.7833C35.7641 19.1667 36.8575 19.3583 38.04 19.3583Z" fill="white"/>
<path d="M55.2698 22.6806V0.319444H58.851L69.0926 16.6431H67.2183L77.2925 0.319444H80.8737L80.9072 22.6806H76.7905L76.757 6.48472H77.6272L69.0591 20.125H67.1179L58.4159 6.48472H59.42V22.6806H55.2698Z" fill="white"/>
<path d="M91.2518 9.61528H102.899V13.0333H91.2518V9.61528ZM91.5865 19.1986H104.807V22.6806H87.2355V0.319444H104.338V3.80139H91.5865V19.1986Z" fill="white"/>
<path d="M115.152 22.6806V13.8319L116.123 16.3875L105.948 0.319444H110.601L118.767 13.2569H116.156L124.39 0.319444H128.674L118.499 16.3875L119.503 13.8319V22.6806H115.152Z" fill="white"/>
<path d="M141.488 23C139.658 23 137.974 22.7125 136.434 22.1375C134.894 21.5625 133.556 20.7639 132.418 19.7417C131.28 18.6981 130.398 17.4843 129.774 16.1C129.149 14.6944 128.837 13.1611 128.837 11.5C128.837 9.83889 129.149 8.3162 129.774 6.93194C130.398 5.52639 131.28 4.3125 132.418 3.29028C133.556 2.24676 134.894 1.4375 136.434 0.8625C137.974 0.2875 139.647 0 141.454 0C143.284 0 144.958 0.2875 146.475 0.8625C148.014 1.4375 149.353 2.24676 150.491 3.29028C151.629 4.3125 152.51 5.52639 153.135 6.93194C153.76 8.3162 154.072 9.83889 154.072 11.5C154.072 13.1611 153.76 14.6944 153.135 16.1C152.51 17.5056 151.629 18.7194 150.491 19.7417C149.353 20.7639 148.014 21.5625 146.475 22.1375C144.958 22.7125 143.295 23 141.488 23ZM141.454 19.3583C142.637 19.3583 143.73 19.1667 144.734 18.7833C145.738 18.4 146.609 17.8569 147.345 17.1542C148.081 16.4301 148.65 15.5995 149.052 14.6625C149.476 13.7042 149.688 12.65 149.688 11.5C149.688 10.35 149.476 9.30648 149.052 8.36945C148.65 7.41111 148.081 6.58056 147.345 5.87778C146.609 5.1537 145.738 4.6 144.734 4.21667C143.73 3.83333 142.637 3.64167 141.454 3.64167C140.272 3.64167 139.179 3.83333 138.174 4.21667C137.193 4.6 136.322 5.1537 135.564 5.87778C134.828 6.58056 134.247 7.41111 133.823 8.36945C133.422 9.30648 133.221 10.35 133.221 11.5C133.221 12.6287 133.422 13.6722 133.823 14.6306C134.247 15.5889 134.828 16.4301 135.564 17.1542C136.3 17.8569 137.17 18.4 138.174 18.7833C139.179 19.1667 140.272 19.3583 141.454 19.3583Z" fill="white"/>
<path d="M168.758 23C165.545 23 163.024 22.1375 161.194 20.4125C159.387 18.6875 158.483 16.1958 158.483 12.9375V0.319444H162.834V12.7778C162.834 15.0778 163.348 16.7495 164.374 17.7931C165.423 18.8366 166.895 19.3583 168.792 19.3583C170.689 19.3583 172.15 18.8366 173.176 17.7931C174.203 16.7495 174.716 15.0778 174.716 12.7778V0.319444H179V12.9375C179 16.1958 178.085 18.6875 176.256 20.4125C174.448 22.1375 171.949 23 168.758 23Z" fill="white"/>
</svg>
