<svg width="189" height="40" viewBox="0 0 189 40" fill="none" xmlns="http://www.w3.org/2000/svg">
<rect width="40" height="40" fill="#272727"/>
<path d="M7.56757 19.4595L10.2102 16.8169M10.2102 16.8169L19.4595 7.56763L28.7087 16.8169M10.2102 16.8169V30.0301C10.2102 30.7598 10.8018 31.3514 11.5315 31.3514H15.4955M28.7087 16.8169L31.3514 19.4595M28.7087 16.8169V30.0301C28.7087 30.7598 28.1171 31.3514 27.3874 31.3514H23.4234M15.4955 31.3514C16.2252 31.3514 16.8168 30.7598 16.8168 30.0301V24.7448C16.8168 24.0151 17.4084 23.4235 18.1381 23.4235H20.7808C21.5105 23.4235 22.1021 24.0151 22.1021 24.7448V30.0301C22.1021 30.7598 22.6937 31.3514 23.4234 31.3514M15.4955 31.3514H23.4234" stroke="#F9F9F9" stroke-width="2" stroke-linecap="round" stroke-linejoin="round"/>
<path d="M70.064 12.2H73.184V29H70.064V12.2ZM61.376 29H58.256V12.2H61.376V29ZM70.304 21.8H61.112V19.136H70.304V21.8ZM85.5577 29.24C84.2457 29.24 83.0377 29.024 81.9337 28.592C80.8297 28.16 79.8697 27.56 79.0537 26.792C78.2377 26.008 77.6057 25.096 77.1577 24.056C76.7097 23 76.4857 21.848 76.4857 20.6C76.4857 19.352 76.7097 18.208 77.1577 17.168C77.6057 16.112 78.2377 15.2 79.0537 14.432C79.8697 13.648 80.8297 13.04 81.9337 12.608C83.0377 12.176 84.2377 11.96 85.5337 11.96C86.8457 11.96 88.0457 12.176 89.1337 12.608C90.2377 13.04 91.1977 13.648 92.0137 14.432C92.8297 15.2 93.4617 16.112 93.9097 17.168C94.3577 18.208 94.5817 19.352 94.5817 20.6C94.5817 21.848 94.3577 23 93.9097 24.056C93.4617 25.112 92.8297 26.024 92.0137 26.792C91.1977 27.56 90.2377 28.16 89.1337 28.592C88.0457 29.024 86.8537 29.24 85.5577 29.24ZM85.5337 26.504C86.3817 26.504 87.1657 26.36 87.8857 26.072C88.6057 25.784 89.2297 25.376 89.7577 24.848C90.2857 24.304 90.6937 23.68 90.9817 22.976C91.2857 22.256 91.4377 21.464 91.4377 20.6C91.4377 19.736 91.2857 18.952 90.9817 18.248C90.6937 17.528 90.2857 16.904 89.7577 16.376C89.2297 15.832 88.6057 15.416 87.8857 15.128C87.1657 14.84 86.3817 14.696 85.5337 14.696C84.6857 14.696 83.9017 14.84 83.1817 15.128C82.4777 15.416 81.8537 15.832 81.3097 16.376C80.7817 16.904 80.3657 17.528 80.0617 18.248C79.7737 18.952 79.6297 19.736 79.6297 20.6C79.6297 21.448 79.7737 22.232 80.0617 22.952C80.3657 23.672 80.7817 24.304 81.3097 24.848C81.8377 25.376 82.4617 25.784 83.1817 26.072C83.9017 26.36 84.6857 26.504 85.5337 26.504ZM97.8888 29V12.2H100.457L107.801 24.464H106.457L113.681 12.2H116.249L116.273 29H113.321L113.297 16.832H113.921L107.777 27.08H106.385L100.145 16.832H100.865V29H97.8888ZM123.691 19.184H132.043V21.752H123.691V19.184ZM123.931 26.384H133.411V29H120.811V12.2H133.075V14.816H123.931V26.384ZM140.829 29V22.352L141.525 24.272L134.229 12.2H137.565L143.421 21.92H141.549L147.453 12.2H150.525L143.229 24.272L143.949 22.352V29H140.829ZM159.714 29.24C158.402 29.24 157.194 29.024 156.09 28.592C154.986 28.16 154.026 27.56 153.21 26.792C152.394 26.008 151.762 25.096 151.314 24.056C150.866 23 150.642 21.848 150.642 20.6C150.642 19.352 150.866 18.208 151.314 17.168C151.762 16.112 152.394 15.2 153.21 14.432C154.026 13.648 154.986 13.04 156.09 12.608C157.194 12.176 158.394 11.96 159.69 11.96C161.002 11.96 162.202 12.176 163.29 12.608C164.394 13.04 165.354 13.648 166.17 14.432C166.986 15.2 167.618 16.112 168.066 17.168C168.514 18.208 168.738 19.352 168.738 20.6C168.738 21.848 168.514 23 168.066 24.056C167.618 25.112 166.986 26.024 166.17 26.792C165.354 27.56 164.394 28.16 163.29 28.592C162.202 29.024 161.01 29.24 159.714 29.24ZM159.69 26.504C160.538 26.504 161.322 26.36 162.042 26.072C162.762 25.784 163.386 25.376 163.914 24.848C164.442 24.304 164.85 23.68 165.138 22.976C165.442 22.256 165.594 21.464 165.594 20.6C165.594 19.736 165.442 18.952 165.138 18.248C164.85 17.528 164.442 16.904 163.914 16.376C163.386 15.832 162.762 15.416 162.042 15.128C161.322 14.84 160.538 14.696 159.69 14.696C158.842 14.696 158.058 14.84 157.338 15.128C156.634 15.416 156.01 15.832 155.466 16.376C154.938 16.904 154.522 17.528 154.218 18.248C153.93 18.952 153.786 19.736 153.786 20.6C153.786 21.448 153.93 22.232 154.218 22.952C154.522 23.672 154.938 24.304 155.466 24.848C155.994 25.376 156.618 25.784 157.338 26.072C158.058 26.36 158.842 26.504 159.69 26.504ZM179.269 29.24C176.965 29.24 175.157 28.592 173.845 27.296C172.549 26 171.901 24.128 171.901 21.68V12.2H175.021V21.56C175.021 23.288 175.389 24.544 176.125 25.328C176.877 26.112 177.933 26.504 179.293 26.504C180.653 26.504 181.701 26.112 182.437 25.328C183.173 24.544 183.541 23.288 183.541 21.56V12.2H186.613V21.68C186.613 24.128 185.957 26 184.645 27.296C183.349 28.592 181.557 29.24 179.269 29.24Z" fill="#272727"/>
</svg>
